<?xml version="1.0" encoding="UTF-8" standalone="no"?>
<!-- Created with Inkscape (http://www.inkscape.org/) -->

<svg
   xmlns:dc="http://purl.org/dc/elements/1.1/"
   xmlns:cc="http://creativecommons.org/ns#"
   xmlns:rdf="http://www.w3.org/1999/02/22-rdf-syntax-ns#"
   xmlns:svg="http://www.w3.org/2000/svg"
   xmlns="http://www.w3.org/2000/svg"
   xmlns:sodipodi="http://sodipodi.sourceforge.net/DTD/sodipodi-0.dtd"
   xmlns:inkscape="http://www.inkscape.org/namespaces/inkscape"
   width="744.09448819"
   height="1052.3622047"
   id="svg2"
   version="1.1"
   inkscape:version="0.48.5 r10040"
   sodipodi:docname="main.svg">
  <defs
     id="defs4" />
  <sodipodi:namedview
     id="base"
     pagecolor="#ffffff"
     bordercolor="#666666"
     borderopacity="1.0"
     inkscape:pageopacity="0.0"
     inkscape:pageshadow="2"
     inkscape:zoom="1.4"
     inkscape:cx="366.26256"
     inkscape:cy="586.9774"
     inkscape:document-units="px"
     inkscape:current-layer="layer1"
     showgrid="false"
     inkscape:window-width="1280"
     inkscape:window-height="1002"
     inkscape:window-x="3192"
     inkscape:window-y="-8"
     inkscape:window-maximized="1" />
  <metadata
     id="metadata7">
    <rdf:RDF>
      <cc:Work
         rdf:about="">
        <dc:format>image/svg+xml</dc:format>
        <dc:type
           rdf:resource="http://purl.org/dc/dcmitype/StillImage" />
        <dc:title></dc:title>
      </cc:Work>
    </rdf:RDF>
  </metadata>
  <g
     inkscape:label="Layer 1"
     inkscape:groupmode="layer"
     id="layer1">
    <rect
       style="fill:#476165;fill-opacity:1;fill-rule:nonzero;stroke:#20f037;stroke-width:1;stroke-linecap:round;stroke-miterlimit:4;stroke-opacity:1;stroke-dasharray:none;stroke-dashoffset:0"
       id="rect3753"
       width="541.74341"
       height="346.789"
       x="105.7143"
       y="166.6479" />
    <path
       style="fill:#b90014;fill-opacity:1;fill-rule:nonzero;stroke:none"
       d="M 430.3125 204.59375 L 430.3125 218.4375 L 417.125 218.4375 L 417.125 224.6875 L 403.59375 224.6875 L 403.59375 244 L 373.09375 244 L 373.09375 308.4375 L 376.46875 308.4375 L 376.46875 340.6875 L 419 340.6875 L 419 345.53125 L 430.125 345.53125 L 430.125 383.75 L 441.40625 383.75 L 441.40625 387.8125 L 446.3125 387.8125 L 446.3125 423.53125 L 480.21875 423.53125 L 480.21875 437.84375 L 511.375 437.84375 L 511.375 423.53125 L 534.40625 423.53125 L 534.40625 363.3125 L 579.71875 363.3125 L 579.71875 317.375 L 574.46875 317.375 L 574.46875 280.8125 L 600.96875 280.8125 L 600.96875 244.21875 L 558.75 244.21875 L 558.75 272.53125 L 503.25 272.53125 L 503.25 260.28125 L 499.78125 260.28125 L 499.78125 218.4375 L 491.03125 218.4375 L 491.03125 206.53125 L 477.375 206.53125 L 477.375 204.59375 L 430.3125 204.59375 z "
       id="rect3755" />
    <rect
       style="fill:#4af408;fill-opacity:1;fill-rule:nonzero;stroke:none"
       id="rect3842"
       width="87.709953"
       height="61.804939"
       x="534.46924"
       y="169.26627" />
    <g
       id="g3858">
      <rect
         ry="9.0913725"
         y="240.70461"
         x="227.28432"
         height="60.609154"
         width="22.797144"
         id="rect3844"
         style="fill:#c8a034;fill-opacity:1;fill-rule:nonzero;stroke:none" />
      <rect
         style="fill:#d65b26;fill-opacity:1;fill-rule:nonzero;stroke:none"
         id="rect3850"
         width="28.067627"
         height="28.109152"
         x="224.6797"
         y="256.77603"
         ry="4.2163725" />
      <rect
         ry="8.7500048"
         y="259.14792"
         x="230.35715"
         height="23.214443"
         width="28.928629"
         id="rect3848"
         style="fill:#020100;fill-opacity:1;fill-rule:nonzero;stroke:none" />
      <rect
         inkscape:transform-center-y="11.435768"
         rx="7.9893069"
         style="fill:#c8a034;fill-opacity:1;fill-rule:nonzero;stroke:none"
         id="rect3854"
         width="15.978614"
         height="36.112953"
         x="231.57745"
         y="289.44449"
         ry="12.940475" />
      <rect
         transform="scale(1,-1)"
         ry="12.940475"
         y="-253.07901"
         x="231.57745"
         height="36.112953"
         width="15.978614"
         id="rect3856"
         style="fill:#c8a034;fill-opacity:1;fill-rule:nonzero;stroke:none"
         rx="7.9893069"
         inkscape:transform-center-y="-11.43576" />
    </g>
    <rect
       ry="9.0913725"
       y="422.02701"
       x="348.50262"
       height="60.609154"
       width="22.797144"
       id="rect3867"
       style="fill:#c8a034;fill-opacity:1;fill-rule:nonzero;stroke:none" />
    <rect
       style="fill:#d65b26;fill-opacity:1;fill-rule:nonzero;stroke:none"
       id="rect3869"
       width="28.067627"
       height="28.109152"
       x="345.89801"
       y="438.09842"
       ry="4.2163725" />
    <rect
       ry="8.7500048"
       y="440.47031"
       x="351.57544"
       height="23.214443"
       width="28.928629"
       id="rect3871"
       style="fill:#020100;fill-opacity:1;fill-rule:nonzero;stroke:none" />
    <rect
       inkscape:transform-center-y="-1.5337031"
       rx="7.9893069"
       style="fill:#c8a034;fill-opacity:1;fill-rule:nonzero;stroke:none"
       id="rect3873"
       width="15.978614"
       height="36.112953"
       x="-529.45093"
       y="286.87979"
       ry="12.940475"
       transform="matrix(-0.13411556,-0.9909657,0.9909657,-0.13411556,0,0)"
       inkscape:transform-center-x="-11.332447" />
    <rect
       transform="matrix(-0.09845036,0.99514196,0.99514196,0.09845036,0,0)"
       ry="12.940475"
       y="394.52679"
       x="382.19379"
       height="36.112953"
       width="15.978614"
       id="rect3875"
       style="fill:#c8a034;fill-opacity:1;fill-rule:nonzero;stroke:none"
       rx="7.9893069"
       inkscape:transform-center-y="1.1258589"
       inkscape:transform-center-x="-11.380206" />
    <path
       style="fill:#c3c9c0;fill-opacity:1;fill-rule:nonzero;stroke:none"
       d="m 388.04067,469.98054 87.70995,-2 11.42857,6.83104 -11.42857,6.83104 -87.70995,-2 z"
       id="rect3882"
       inkscape:connector-curvature="0"
       sodipodi:nodetypes="cccccc" />
    <rect
       style="fill:#c3c9c0;fill-opacity:1;fill-rule:nonzero;stroke:none"
       id="rect3885"
       width="6.7857141"
       height="25.357143"
       x="386.07144"
       y="462.54077" />
  </g>
</svg>
