<?xml version="1.0" encoding="UTF-8" standalone="no"?>
<!-- Created with Inkscape (http://www.inkscape.org/) -->

<svg
   xmlns:dc="http://purl.org/dc/elements/1.1/"
   xmlns:cc="http://creativecommons.org/ns#"
   xmlns:rdf="http://www.w3.org/1999/02/22-rdf-syntax-ns#"
   xmlns:svg="http://www.w3.org/2000/svg"
   xmlns="http://www.w3.org/2000/svg"
   xmlns:xlink="http://www.w3.org/1999/xlink"
   xmlns:sodipodi="http://sodipodi.sourceforge.net/DTD/sodipodi-0.dtd"
   xmlns:inkscape="http://www.inkscape.org/namespaces/inkscape"
   width="1024px"
   height="768px"
   id="svg2985"
   version="1.1"
   inkscape:version="0.48.5 r10040"
   sodipodi:docname="gui.svg">
  <defs
     id="defs2987">
    <linearGradient
       id="linearGradient3931">
      <stop
         style="stop-color:#ffffff;stop-opacity:1;"
         offset="0"
         id="stop3933" />
      <stop
         style="stop-color:#ffffff;stop-opacity:0;"
         offset="1"
         id="stop3935" />
    </linearGradient>
    <linearGradient
       inkscape:collect="always"
       xlink:href="#linearGradient3931"
       id="linearGradient3937"
       x1="282.8125"
       y1="135.49995"
       x2="262.46869"
       y2="48.499947"
       gradientUnits="userSpaceOnUse"
       gradientTransform="translate(188,10)" />
    <linearGradient
       inkscape:collect="always"
       xlink:href="#linearGradient3931"
       id="linearGradient3965"
       gradientUnits="userSpaceOnUse"
       gradientTransform="translate(188,81)"
       x1="282.8125"
       y1="135.49995"
       x2="262.46869"
       y2="48.499947" />
    <filter
       id="filter3967"
       inkscape:label="Glow"
       inkscape:menu="Shadows and Glows"
       inkscape:menu-tooltip="Glow of object's own color at the edges"
       color-interpolation-filters="sRGB">
      <feGaussianBlur
         id="feGaussianBlur3969"
         stdDeviation="5"
         result="result91" />
      <feComposite
         id="feComposite3971"
         in2="result91"
         in="SourceGraphic"
         operator="over" />
    </filter>
    <linearGradient
       inkscape:collect="always"
       xlink:href="#linearGradient3931"
       id="linearGradient3981"
       x1="520.87616"
       y1="121.56676"
       x2="497.80582"
       y2="85.063187"
       gradientUnits="userSpaceOnUse" />
    <linearGradient
       inkscape:collect="always"
       xlink:href="#linearGradient3931"
       id="linearGradient3996"
       gradientUnits="userSpaceOnUse"
       x1="520.87616"
       y1="121.56676"
       x2="497.80582"
       y2="85.063187"
       gradientTransform="translate(166,1.5)" />
    <linearGradient
       inkscape:collect="always"
       xlink:href="#linearGradient3931"
       id="linearGradient3781"
       gradientUnits="userSpaceOnUse"
       gradientTransform="matrix(8.6559142,0,0,0.43850749,-3982.2071,280.95315)"
       x1="520.87616"
       y1="121.56676"
       x2="497.80582"
       y2="85.063187" />
    <linearGradient
       inkscape:collect="always"
       xlink:href="#linearGradient3931"
       id="linearGradient3012"
       gradientUnits="userSpaceOnUse"
       x1="520.87616"
       y1="121.56676"
       x2="497.80582"
       y2="85.063187"
       gradientTransform="translate(166,48)" />
  </defs>
  <sodipodi:namedview
     id="base"
     pagecolor="#04062d"
     bordercolor="#666666"
     borderopacity="1.0"
     inkscape:pageopacity="0"
     inkscape:pageshadow="2"
     inkscape:zoom="2.8284271"
     inkscape:cx="676.52698"
     inkscape:cy="631.57985"
     inkscape:current-layer="layer1"
     inkscape:document-units="px"
     showgrid="false"
     inkscape:window-width="1920"
     inkscape:window-height="1018"
     inkscape:window-x="1272"
     inkscape:window-y="-8"
     inkscape:window-maximized="1"
     showguides="true"
     inkscape:guide-bbox="true" />
  <metadata
     id="metadata2990">
    <rdf:RDF>
      <cc:Work
         rdf:about="">
        <dc:format>image/svg+xml</dc:format>
        <dc:type
           rdf:resource="http://purl.org/dc/dcmitype/StillImage" />
        <dc:title />
      </cc:Work>
    </rdf:RDF>
  </metadata>
  <g
     id="layer1"
     inkscape:label="Layer 1"
     inkscape:groupmode="layer">
    <rect
       style="fill:#7d7d7d;fill-opacity:1;stroke:none"
       id="rect3006"
       width="1166"
       height="628"
       x="2"
       y="1" />
    <path
       style="fill:url(#linearGradient3937);fill-opacity:1;stroke:#ffffff;stroke-width:3;stroke-linecap:round;stroke-linejoin:miter;stroke-miterlimit:4;stroke-opacity:1;stroke-dasharray:none"
       d="m 256.3125,105.3125 c -2.77,0 -5,2.23 -5,5 l 0,45.375 c 0,2.77 2.23,5 5,5 l 227.5938,0 c 0.585,-0.65172 1.0973,-1.25218 1.5625,-1.875 0.3761,-0.99687 0.644,-2.13992 0.8437,-3.53125 -3.2418,-1.82026 -7.161,-1.20879 -12,-0.28125 4.394,-4.68712 6.1982,-6.16664 6.4375,-15.40625 l 8.5313,3.3125 c -4.5412,2.7169 -2.5032,2.12685 -1.4688,4.84375 0.2074,0.12492 0.4043,0.20877 0.5938,0.3125 0.01,-0.2528 0.024,-0.48407 0.031,-0.75 l 3.5,1.34375 c 1.2907,-0.69481 2.0715,-2.6954 4.4062,-4.65625 l -2.0312,5.59375 2.6562,1.03125 c -2.681,1.60402 -3.0414,2.05902 -2.6875,2.71875 l 0.8438,0.34375 c 3.6949,-3.93438 5.279,-5.90692 5.5,-14.4375 l 5.625,2.15625 c 0.2908,-0.65496 0.5145,-1.38126 0.7187,-2.1875 -0.4675,0.0851 -0.9204,0.15687 -1.4062,0.25 0.6489,-0.6922 1.2421,-1.28687 1.7812,-1.875 0.2317,-1.42569 0.3518,-3.11598 0.4063,-5.21875 l 2.625,1 c 1.001,-2.10086 1.507,-4.75608 1.625,-9.3125 l 8.5312,3.3125 c -0.015,0.009 -0.017,0.0225 -0.031,0.0312 l 5.875,2.25 c 0.3592,-0.38776 0.7502,-0.79395 1.2188,-1.1875 l -1.4063,3.84375 c 1.3656,-1.62704 2.293,-3.19771 2.875,-5.53125 -1.912,0.0759 -4.0088,0.46468 -6.3125,0.90625 1.4069,-1.50078 2.528,-2.66753 3.4375,-3.875 -1.0217,0.15643 -2.0704,0.31712 -3.1875,0.53125 3.5702,-3.80828 5.4255,-5.50922 6.125,-10.96875 0.01,-0.0396 -0.01,-0.085 0,-0.125 0.015,-0.34575 0.053,-0.63019 0.062,-1 l 0.031,0.0312 c 0.092,-0.99454 0.1863,-2.09212 0.2188,-3.34375 l 8.5,3.3125 c -2.1287,1.27355 -2.7991,1.81038 -2.8125,2.3125 l 2.5937,1 c -0.5064,0.303 -0.8714,0.52381 -1.2187,0.75 l 2.7187,1.0625 c 0.029,-0.42483 0.05,-0.82967 0.062,-1.3125 l 0.9063,0.34375 c 0.5591,-1.84495 0.8496,-4.17201 0.9375,-7.5625 l 0.3437,0.125 c -0.5919,-2.10129 -2.4856,-3.65625 -4.7812,-3.65625 z M 526.25,129.78125 c -2.845,1.71394 -2.9417,2.06144 -2.375,2.875 0.6989,-0.6742 1.3381,-1.72861 2.375,-2.875 z m 0.6563,5.03125 c -0.3586,0.0509 -0.7443,0.12263 -1.125,0.1875 0.2544,0.13244 0.4949,0.21856 0.7187,0.3125 0.1404,-0.1626 0.2779,-0.33535 0.4063,-0.5 z m -9.3438,6.09375 c -0.5459,0.027 -1.1115,0.0876 -1.6875,0.15625 0.2257,0.11598 0.4291,0.2343 0.625,0.3125 0.3177,0.1268 0.5799,0.19719 0.8438,0.25 0.078,-0.22585 0.1511,-0.47178 0.2187,-0.71875 z m -22.6562,13.03125 c -0.047,0.0324 -0.1015,0.0601 -0.1563,0.0937 0.01,0.0103 0.024,0.0207 0.031,0.0312 0.041,-0.0436 0.085,-0.0819 0.125,-0.125 z m 2.0937,0.25 c -0.6358,0.10702 -1.2698,0.21901 -1.9375,0.34375 0.1617,0.26853 0.3236,0.55619 0.4688,0.9375 0.083,0.05 0.1386,0.0785 0.2187,0.125 0.4556,-0.48506 0.858,-0.96621 1.25,-1.40625 z m 3.2813,1.5625 c -1.0772,0.0851 -2.214,0.2303 -3.4063,0.4375 1.575,0.7085 2.4678,0.52821 3.25,-0.125 0.057,-0.0995 0.1021,-0.21077 0.1563,-0.3125 z"
       id="button"
       inkscape:connector-curvature="0"
       sodipodi:nodetypes="ssssccccccccccccccccccccccccccccccccccccccccccccccsscccccccccccccccccccccccccc"
       inkscape:label="#rect2993" />
    <path
       sodipodi:nodetypes="ssssccccccccccccccccccccccccccccccccccccccccccccccsscccccccccccccccccccccccccc"
       inkscape:connector-curvature="0"
       id="button_over"
       d="m 256.3125,176.3125 c -2.77,0 -5,2.23 -5,5 l 0,45.375 c 0,2.77 2.23,5 5,5 l 227.5938,0 c 0.585,-0.65172 1.0973,-1.25218 1.5625,-1.875 0.3761,-0.99687 0.644,-2.13992 0.8437,-3.53125 -3.2418,-1.82026 -7.161,-1.20879 -12,-0.28125 4.394,-4.68712 6.1982,-6.16664 6.4375,-15.40625 l 8.5313,3.3125 c -4.5412,2.7169 -2.5032,2.12685 -1.4688,4.84375 0.2074,0.12492 0.4043,0.20877 0.5938,0.3125 0.01,-0.2528 0.024,-0.48407 0.031,-0.75 l 3.5,1.34375 c 1.2907,-0.69481 2.0715,-2.6954 4.4062,-4.65625 l -2.0312,5.59375 2.6562,1.03125 c -2.681,1.60402 -3.0414,2.05902 -2.6875,2.71875 l 0.8438,0.34375 c 3.6949,-3.93438 5.279,-5.90692 5.5,-14.4375 l 5.625,2.15625 c 0.2908,-0.65496 0.5145,-1.38126 0.7187,-2.1875 -0.4675,0.0851 -0.9204,0.15687 -1.4062,0.25 0.6489,-0.6922 1.2421,-1.28687 1.7812,-1.875 0.2317,-1.42569 0.3518,-3.11598 0.4063,-5.21875 l 2.625,1 c 1.001,-2.10086 1.507,-4.75608 1.625,-9.3125 l 8.5312,3.3125 c -0.015,0.009 -0.017,0.0225 -0.031,0.0312 l 5.875,2.25 c 0.3592,-0.38776 0.7502,-0.79395 1.2188,-1.1875 l -1.4063,3.84375 c 1.3656,-1.62704 2.293,-3.19771 2.875,-5.53125 -1.912,0.0759 -4.0088,0.46468 -6.3125,0.90625 1.4069,-1.50078 2.528,-2.66753 3.4375,-3.875 -1.0217,0.15643 -2.0704,0.31712 -3.1875,0.53125 3.5702,-3.80828 5.4255,-5.50922 6.125,-10.96875 0.01,-0.0396 -0.01,-0.085 0,-0.125 0.015,-0.34575 0.053,-0.63019 0.062,-1 l 0.031,0.0312 c 0.092,-0.99454 0.1863,-2.09212 0.2188,-3.34375 l 8.5,3.3125 c -2.1287,1.27355 -2.7991,1.81038 -2.8125,2.3125 l 2.5937,1 c -0.5064,0.303 -0.8714,0.52381 -1.2187,0.75 l 2.7187,1.0625 c 0.029,-0.42483 0.05,-0.82967 0.062,-1.3125 l 0.9063,0.34375 c 0.5591,-1.84495 0.8496,-4.17201 0.9375,-7.5625 l 0.3437,0.125 c -0.5919,-2.10129 -2.4856,-3.65625 -4.7812,-3.65625 z M 526.25,200.78125 c -2.845,1.71394 -2.9417,2.06144 -2.375,2.875 0.6989,-0.6742 1.3381,-1.72861 2.375,-2.875 z m 0.6563,5.03125 c -0.3586,0.0509 -0.7443,0.12263 -1.125,0.1875 0.2544,0.13244 0.4949,0.21856 0.7187,0.3125 0.1404,-0.1626 0.2779,-0.33535 0.4063,-0.5 z m -9.3438,6.09375 c -0.5459,0.027 -1.1115,0.0876 -1.6875,0.15625 0.2257,0.11598 0.4291,0.2343 0.625,0.3125 0.3177,0.1268 0.5799,0.19719 0.8438,0.25 0.078,-0.22585 0.1511,-0.47178 0.2187,-0.71875 z m -22.6562,13.03125 c -0.047,0.0324 -0.1015,0.0601 -0.1563,0.0937 0.01,0.0103 0.024,0.0207 0.031,0.0312 0.041,-0.0436 0.085,-0.0819 0.125,-0.125 z m 2.0937,0.25 c -0.6358,0.10702 -1.2698,0.21901 -1.9375,0.34375 0.1617,0.26853 0.3236,0.55619 0.4688,0.9375 0.083,0.05 0.1386,0.0785 0.2187,0.125 0.4556,-0.48506 0.858,-0.96621 1.25,-1.40625 z m 3.2813,1.5625 c -1.0772,0.0851 -2.214,0.2303 -3.4063,0.4375 1.575,0.7085 2.4678,0.52821 3.25,-0.125 0.057,-0.0995 0.1021,-0.21077 0.1563,-0.3125 z"
       style="fill:url(#linearGradient3965);fill-opacity:1;stroke:#ffffff;stroke-width:3;stroke-linecap:round;stroke-linejoin:miter;stroke-miterlimit:4;stroke-opacity:1;stroke-dasharray:none;filter:url(#filter3967)"
       inkscape:label="#path3963" />
    <rect
       ry="5"
       rx="5"
       y="91.5"
       x="655"
       height="34"
       width="34"
       id="checkbox"
       style="fill:url(#linearGradient3996);fill-opacity:1;stroke:#ffffff;stroke-width:3;stroke-linecap:round;stroke-linejoin:miter;stroke-miterlimit:4;stroke-opacity:1;stroke-dasharray:none"
       inkscape:label="#rect3994" />
    <g
       transform="translate(2.3071,-90.3328)"
       id="layout_test"
       inkscape:label="#g5349"
       inkscape:export-xdpi="90"
       inkscape:export-ydpi="90">
      <rect
         ry="9"
         rx="9"
         y="238.68431"
         x="79.044434"
         height="79.296974"
         width="79.296974"
         id="rect5329"
         style="fill:#e2af6e;fill-opacity:1;stroke:#000000;stroke-width:3;stroke-linecap:round;stroke-linejoin:miter;stroke-miterlimit:4;stroke-opacity:1;stroke-dasharray:none" />
      <path
         transform="translate(7.071068,3.5355339)"
         inkscape:transform-center-y="0.3393683"
         inkscape:transform-center-x="0.23036384"
         d="m 83.337584,238.17923 1.291034,6.80934 -6.077117,3.33205 -5.046898,-4.75002 2.957962,-6.26772 z"
         inkscape:randomized="0"
         inkscape:rounded="0"
         inkscape:flatsided="true"
         sodipodi:arg2="-0.18737339"
         sodipodi:arg1="-0.81569192"
         sodipodi:r2="4.7696099"
         sodipodi:r1="5.8955622"
         sodipodi:cy="242.47238"
         sodipodi:cx="79.296974"
         sodipodi:sides="5"
         id="path5333"
         style="fill:none;stroke:#000000;stroke-width:3;stroke-linecap:round;stroke-linejoin:miter;stroke-miterlimit:4;stroke-opacity:1;stroke-dasharray:none"
         sodipodi:type="star" />
      <path
         sodipodi:type="star"
         style="fill:none;stroke:#000000;stroke-width:3;stroke-linecap:round;stroke-linejoin:miter;stroke-miterlimit:4;stroke-opacity:1;stroke-dasharray:none"
         id="path5339"
         sodipodi:sides="5"
         sodipodi:cx="79.296974"
         sodipodi:cy="242.47238"
         sodipodi:r1="5.8955622"
         sodipodi:r2="4.7696099"
         sodipodi:arg1="-0.81569192"
         sodipodi:arg2="-0.18737339"
         inkscape:flatsided="true"
         inkscape:rounded="0"
         inkscape:randomized="0"
         d="m 83.337584,238.17923 1.291034,6.80934 -6.077117,3.33205 -5.046898,-4.75002 2.957962,-6.26772 z"
         inkscape:transform-center-x="-0.23036616"
         inkscape:transform-center-y="0.3393683"
         transform="matrix(-1,0,0,1,231.11675,3.5355339)" />
      <path
         transform="translate(64.41753,2.0203051)"
         sodipodi:type="arc"
         style="fill:none;stroke:#000000;stroke-width:3;stroke-linecap:round;stroke-linejoin:miter;stroke-miterlimit:4;stroke-opacity:1;stroke-dasharray:none"
         id="path5343"
         sodipodi:cx="86.746849"
         sodipodi:cy="309.01617"
         sodipodi:rx="4.9244938"
         sodipodi:ry="4.9244938"
         d="m 91.671343,309.01617 c 0,2.71973 -2.204771,4.9245 -4.924494,4.9245 -2.719723,0 -4.924494,-2.20477 -4.924494,-4.9245 0,-2.71972 2.204771,-4.92449 4.924494,-4.92449 2.719723,0 4.924494,2.20477 4.924494,4.92449 z" />
      <path
         d="m 91.671343,309.01617 c 0,2.71973 -2.204771,4.9245 -4.924494,4.9245 -2.719723,0 -4.924494,-2.20477 -4.924494,-4.9245 0,-2.71972 2.204771,-4.92449 4.924494,-4.92449 2.719723,0 4.924494,2.20477 4.924494,4.92449 z"
         sodipodi:ry="4.9244938"
         sodipodi:rx="4.9244938"
         sodipodi:cy="309.01617"
         sodipodi:cx="86.746849"
         id="path5345"
         style="fill:none;stroke:#000000;stroke-width:3;stroke-linecap:round;stroke-linejoin:miter;stroke-miterlimit:4;stroke-opacity:1;stroke-dasharray:none"
         sodipodi:type="arc"
         transform="translate(-0.52538131,2.0203051)" />
      <path
         inkscape:connector-curvature="0"
         id="path5347"
         d="m 92.17642,253.58406 52.78047,0"
         style="fill:none;stroke:#000000;stroke-width:2;stroke-linecap:butt;stroke-linejoin:miter;stroke-miterlimit:4;stroke-opacity:1;stroke-dasharray:none" />
    </g>
    <rect
       inkscape:label="#rect3994"
       style="fill:none;stroke:#ffffff;stroke-width:3;stroke-linecap:round;stroke-linejoin:miter;stroke-miterlimit:4;stroke-opacity:1;stroke-dasharray:none"
       id="slider_back"
       width="294.30109"
       height="14.909255"
       x="250.53491"
       y="282.41882"
       rx="5"
       ry="5" />
    <rect
       ry="5"
       rx="5"
       y="320.41882"
       x="250.53491"
       height="14.909255"
       width="294.30109"
       id="slider_fill"
       style="fill:url(#linearGradient3781);fill-opacity:1;stroke:none"
       inkscape:label="#rect3994" />
    <rect
       inkscape:label="#rect3994"
       style="fill:#ffffff;fill-opacity:1;stroke:#ffffff;stroke-width:3;stroke-linecap:round;stroke-linejoin:miter;stroke-miterlimit:4;stroke-opacity:1;stroke-dasharray:none"
       id="slider_btn"
       width="7.7461729"
       height="34"
       x="609.24927"
       y="302.22644"
       rx="5" />
    <path
       style="fill:#ffffff;fill-opacity:1;fill-rule:nonzero;stroke:none"
       d="m 662.45342,56.530699 10.40625,10.5 -10.40625,10.5 6.15625,2 6.34375,-10 6.3125,10 6.1875,-2 -10.4375,-10.5 10.4375,-10.5 -6.1875,-2 -6.3125,10 -6.34375,-10 z"
       id="checkbox_check"
       inkscape:connector-curvature="0"
       sodipodi:nodetypes="ccccccccccccc"
       inkscape:label="#rect3780" />
  </g>
</svg>
